# xmcd
#
# Track frame offsets:
#	150
#	11845
#	24804
#	49658
#	63614
#	86208
#	103001
#	114930
#	131704
#	144335
#
# Disc length: 2090 seconds
#
# Revision: 1
# Processed by: cddbd v1.4PL0 Copyright (c) Steve Scherf et al.
# Submitted via: audiograbber 1.82.01
#
DISCID=8208280a
DTITLE=W. C. Spencer - Blues Explorer
DYEAR=2003
DGENRE=Blues
TTITLE0=Kansas City
TTITLE1=I Said The Blues
TTITLE2=Call On Me
TTITLE3=Tell Me Mamma
TTITLE4=I'm Leavin'
TTITLE5=So Long
TTITLE6=Eatin' Man Blues
TTITLE7=Forty Four
TTITLE8=Worried Life Blues
TTITLE9=Mean Ol' Train
EXTD=
EXTT0=
EXTT1=
EXTT2=
EXTT3=
EXTT4=
EXTT5=
EXTT6=
EXTT7=
EXTT8=
EXTT9=
PLAYORDER=
